<svg width="16" height="16" viewBox="0 0 16 16" fill="none" xmlns="http://www.w3.org/2000/svg">
<rect width="16" height="16" rx="1" fill="white"/>
<path d="M5.936 8.752H5.3V12.772H6.08V13H2.18V12.772H2.96V4.828H2.18V4.6H5.804C6.844 4.6 7.58 4.656 8.012 4.768C8.452 4.872 8.76 5 8.936 5.152C9.32 5.464 9.512 5.96 9.512 6.64C9.512 7.32 9.344 7.808 9.008 8.104C8.672 8.392 8.16 8.564 7.472 8.62V8.656C8.12 8.744 8.572 8.936 8.828 9.232C9.084 9.528 9.212 10.024 9.212 10.72V11.356C9.212 11.772 9.232 12.052 9.272 12.196C9.32 12.34 9.416 12.412 9.56 12.412C9.704 12.412 9.816 12.348 9.896 12.22C9.984 12.084 10.064 11.804 10.136 11.38L10.34 11.404C10.252 12.084 10.096 12.54 9.872 12.772C9.656 13.004 9.22 13.12 8.564 13.12C7.908 13.12 7.44 12.968 7.16 12.664C6.888 12.352 6.752 11.772 6.752 10.924V10.048C6.752 9.6 6.692 9.272 6.572 9.064C6.46 8.856 6.248 8.752 5.936 8.752ZM5.3 4.828V8.524H5.684C6.14 8.524 6.476 8.384 6.692 8.104C6.916 7.824 7.028 7.368 7.028 6.736V6.388C7.028 5.756 6.92 5.34 6.704 5.14C6.496 4.932 6.16 4.828 5.696 4.828H5.3ZM12.1618 13.12C11.8178 13.12 11.5578 13.02 11.3818 12.82C11.2138 12.612 11.1298 12.364 11.1298 12.076C11.1298 11.78 11.2178 11.532 11.3938 11.332C11.5778 11.132 11.8338 11.032 12.1618 11.032C12.4898 11.032 12.7498 11.116 12.9418 11.284C13.1338 11.452 13.2298 11.704 13.2298 12.04C13.2298 12.376 13.1378 12.64 12.9538 12.832C12.7778 13.024 12.5138 13.12 12.1618 13.12Z" fill="#314528"/>
</svg>
